<svg id="Group_19" data-name="Group 19" xmlns="http://www.w3.org/2000/svg" xmlns:xlink="http://www.w3.org/1999/xlink" width="2251.5" height="657.537" viewBox="0 0 2251.5 657.537">
  <defs>
    <clipPath id="clip-path">
      <rect id="Rectangle_5" data-name="Rectangle 5" width="2251.5" height="657.537"/>
    </clipPath>
  </defs>
  <g id="Group_14" data-name="Group 14" clip-path="url(#clip-path)">
    <path id="Path_21" data-name="Path 21" d="M1914.839,33.361C1818.031,17.723,1708.305,0,1501,0s-317.031,17.723-413.84,33.361C996.628,47.984,918.443,60.613,750.5,60.613S504.37,47.984,413.838,33.361C317.031,17.723,207.3,0,0,0V596.922c167.944,0,246.128,12.629,336.66,27.253,96.807,15.637,206.533,33.361,413.838,33.361s317.032-17.723,413.84-33.359c90.532-14.625,168.717-27.254,336.661-27.254s246.128,12.629,336.66,27.254c96.81,15.636,206.535,33.359,413.841,33.359V60.613c-167.945,0-246.13-12.629-336.661-27.253"/>
  </g>
</svg>
