<svg xmlns="http://www.w3.org/2000/svg" xmlns:xlink="http://www.w3.org/1999/xlink" width="2373.477" height="396.153" viewBox="0 0 2373.477 396.153">
  <defs>
    <clipPath id="clip-path">
      <rect id="Rectangle_1" data-name="Rectangle 1" width="2132.821" height="205.426" fill="#7f4690"/>
    </clipPath>
    <clipPath id="clip-path-2">
      <rect id="Rectangle_2" data-name="Rectangle 2" width="2373.477" height="396.153" fill="#58aae1"/>
    </clipPath>
  </defs>
  <g id="Group_12" data-name="Group 12" transform="translate(43 -257.559)" opacity="0.388">
    <g id="Group_9" data-name="Group 9" transform="translate(-5 -49.85)">
      <g id="Group_6" data-name="Group 6" transform="translate(-26 490.136)">
        <g id="Group_5" data-name="Group 5" clip-path="url(#clip-path)">
          <path id="Path_17" data-name="Path 17" d="M115.209,93.75c20.527-4.342,41.345-12.234,61.478-19.868,30.674-11.63,62.392-23.657,94.171-23.657,49.728,0,98.9,30.319,150.948,62.417l4.405,2.716c50.745,32.281,103.216,65.66,155.337,38.076,20.986-10.718,42.116-31.353,62.553-51.307C674.7,72.256,706.336,41.37,736.853,44.814c31.624,3.266,63.848,41.5,95.011,78.479,19.832,23.534,40.341,47.87,60.419,62.714,18.9,13.96,38.769,20.442,59.066,19.289,30.862-1.765,62.919-20.539,98-57.4,14.97-15.591,30.241-34.283,45.01-52.359,36.42-44.581,74.083-90.683,110.338-94.275,31.618-3.123,64.089,25.26,95.512,52.709,19.481,17.019,39.625,34.613,59.783,45.092a107.372,107.372,0,0,0,51.784,12.969c32.783,0,65.738-13.356,99.926-27.213l5.033-2.038,3.031-1.268c49.4-20.639,100.486-41.984,150.535-20.454,20.116,8.319,40.491,23.316,60.195,37.819,31.532,23.209,64.139,47.2,96.2,43.838,33.039-3.668,66.191-35.028,98.251-65.355,19.067-18.035,38.781-36.686,58.012-49,53.659-33.322,108.681-20.89,129.411-16.206l11.3,2.375v-1.07l-10.834-2.276c-20.946-4.731-76.583-17.3-130.91,16.433-19.345,12.385-39.1,31.075-58.211,49.151-31.88,30.156-64.848,61.34-97.259,64.938-31.261,3.294-63.579-20.51-94.841-43.518-19.775-14.556-40.225-29.606-60.508-38-50.844-21.868-102.338-.352-152.136,20.453l-8.048,3.3c-51.72,20.964-100.572,40.767-150,14.318-20.011-10.4-40.094-27.947-59.517-44.914-33.148-28.953-64.471-56.3-96.93-53.094-37,3.665-74.845,49.991-111.446,94.792-14.754,18.061-30.011,36.736-44.955,52.3-34.814,36.572-66.5,55.194-96.858,56.93-19.814,1.139-39.255-5.246-57.82-18.958-19.964-14.76-40.43-39.046-60.222-62.53-31.34-37.188-63.747-75.645-96.087-78.983-31.45-3.548-63.373,27.607-94.236,57.741-20.367,19.887-41.429,40.454-62.23,51.078-51.107,27.048-103.1-6.026-153.383-38.016l-4.414-2.721c-52.275-32.236-101.653-62.684-151.97-62.684-32.175,0-64.069,12.094-94.914,23.788-20.064,7.608-40.812,15.473-61.18,19.781-35.181,7.182-70.939,4.574-96.943.695v1.045c26.148,3.879,62.029,6.453,97.388-.765" transform="translate(9.148 0)" fill="#7f4690"/>
          <path id="Path_18" data-name="Path 18" d="M43.153,92.436c0,8.03-9.66,14.54-21.576,14.54S0,100.467,0,92.436,9.66,77.9,21.577,77.9s21.576,6.51,21.576,14.54" transform="translate(0 1.548)" fill="#7f4690"/>
        </g>
      </g>
      <g id="Group_8" data-name="Group 8" transform="translate(-38 307.409)">
        <g id="Group_7" data-name="Group 7" clip-path="url(#clip-path-2)">
          <path id="Path_19" data-name="Path 19" d="M162.927,353.069c14.663,4.748,29.572,11.013,43.991,17.07,41.186,17.306,83.771,35.2,126.864,20.685,48.1-16.68,95.2-72.21,145.057-131,8.394-9.894,17.071-20.125,25.662-30.044,23.134-27.282,53.607-61.723,84.172-86.108,30.753-24.53,58.2-36.456,83.923-36.456,26.257,0,54.1,11.926,85.123,36.458,30.847,24.392,61.429,58.83,84.628,86.11q5.786,6.754,11.561,13.574C896.075,293,939.388,344,982.273,344c10.526,0,21.027-3.074,31.476-9.99,26.541-17.366,53.464-60.155,79.5-101.532,29.891-47.5,60.8-96.625,90.678-106.327,32.751-10.952,66.494,23.649,99.132,57.107,23.224,23.807,47.235,48.424,70.743,56.354,28.382,9.188,57.1-5.061,84.871-18.847,27.891-13.844,56.734-28.164,85.48-19.095,27.622,9.318,55.946,42.427,83.34,74.447,28.3,33.087,57.575,67.3,87.03,76.954,35.576,11.576,71.662-14.033,106.562-38.8,20.557-14.59,41.816-29.68,62.637-36.9,31.06-10.552,62.464-3.742,92.83,2.842,25.4,5.513,51.671,11.213,77.405,6.584,58.273-9.566,115.48-67.276,170.8-123.082,20.118-20.057,40.28-40.117,59.18-58.922,34.817-34.646,64.889-64.567,83.068-82.9l19.281-19.451V0l-20.415,20.595c-18.174,18.332-48.242,48.252-83.062,82.9-18.9,18.806-39.059,38.865-59.182,58.928-55.139,55.623-112.154,113.14-169.931,122.626-25.445,4.577-51.558-1.092-76.816-6.57-30.572-6.63-62.18-13.489-93.664-2.794-21.039,7.3-42.393,22.452-63.043,37.108-34.582,24.546-70.339,49.92-105.166,38.585-29.023-9.509-58.138-43.543-86.292-76.455-27.541-32.192-56.019-65.48-84.077-74.943-29.358-9.263-58.487,5.2-86.654,19.182-27.489,13.642-55.911,27.753-83.69,18.761-23.131-7.8-47-32.276-70.088-55.942-32.986-33.813-67.089-68.783-100.763-57.52-30.437,9.883-61.51,59.27-91.563,107.031-25.935,41.221-52.756,83.844-78.991,101.012-23.551,15.592-48.393,12.839-78.173-8.66-26.4-19.054-53.434-50.885-79.582-81.669-3.852-4.537-7.706-9.077-11.561-13.578-23.248-27.337-53.908-61.856-84.866-86.339-31.318-24.766-59.484-36.805-86.107-36.805-26.092,0-53.864,12.039-84.909,36.807-30.68,24.475-61.227,59-84.4,86.332-8.589,9.919-17.271,20.151-25.663,30.049-49.709,58.61-96.661,113.97-144.339,130.5-42.529,14.322-84.838-3.453-125.756-20.648-14.451-6.072-29.391-12.349-44.109-17.113-56.356-19.011-114.421-19.011-142.324-19.011H11v1.773H21.091c27.82,0,85.713,0,141.836,18.932" transform="translate(7.194 -0.001)" fill="#58aae1"/>
          <path id="Path_20" data-name="Path 20" d="M39.7,195.255c0,11.748-8.887,21.274-19.848,21.274S0,207,0,195.255s8.887-21.274,19.848-21.274S39.7,183.506,39.7,195.255" transform="translate(0 134.452)" fill="#58aae1"/>
        </g>
      </g>
    </g>
  </g>
</svg>
